<svg width="53" height="26" viewBox="0 0 53 26" fill="none" xmlns="http://www.w3.org/2000/svg">
<path d="M2.616 25.032C1.99733 25.032 1.688 24.3493 1.688 22.984C1.688 20.5093 1.57067 16.552 1.336 11.112C1.12267 5.672 0.92 2.80267 0.728 2.504C0.728 1.90667 0.962667 1.448 1.432 1.128C1.60267 1.02133 1.83733 0.935999 2.136 0.872C2.456 0.786666 2.744 0.743999 3 0.743999C3.128 0.722665 3.39467 0.711998 3.8 0.711998C4.29067 0.711998 4.64267 0.797331 4.856 0.967999C5.06933 1.11733 5.176 1.39467 5.176 1.8C5.176 2.03467 5.09067 2.216 4.92 2.344C4.74933 2.45067 4.536 2.504 4.28 2.504L3.96 2.472H3.512C2.91467 2.472 2.616 2.58933 2.616 2.824C2.616 3.93333 2.69067 5.384 2.84 7.176C2.968 8.66933 3.05333 10.088 3.096 11.432C3.24533 11.3893 3.52267 11.3253 3.928 11.24C4.35467 11.1333 4.67467 11.08 4.888 11.08C5.12267 11.08 5.32533 11.1867 5.496 11.4C5.66667 11.592 5.752 11.816 5.752 12.072C5.752 12.3707 5.61333 12.584 5.336 12.712C5.29333 12.7333 5.18667 12.7867 5.016 12.872C4.86667 12.936 4.664 12.9787 4.408 13C4.216 13.0213 3.896 13.0533 3.448 13.096H3.096C3.096 14.376 3.20267 16.1147 3.416 18.312C3.608 20.616 3.704 22.3547 3.704 23.528L3.672 23.656L3.64 23.72C3.66133 23.8053 3.672 23.944 3.672 24.136C3.672 24.4133 3.576 24.6373 3.384 24.808C3.192 24.9573 2.936 25.032 2.616 25.032ZM13.1648 25.608C12.6101 25.608 12.0981 25.4267 11.6288 25.064C11.1594 24.7227 10.7754 24.2533 10.4768 23.656C9.85808 22.3547 9.47408 20.936 9.32475 19.4C9.13275 17.9493 9.03675 16.552 9.03675 15.208C9.03675 14.952 9.04742 14.7387 9.06875 14.568V13.992C9.06875 13.8853 9.05808 13.832 9.03675 13.832V13.256L9.06875 11.016C9.09008 10.3333 9.17542 9.24533 9.32475 7.752C9.43142 6.728 9.67675 5.736 10.0608 4.776C10.2101 4.34933 10.4021 4.02933 10.6368 3.816C10.8714 3.58133 11.1381 3.464 11.4368 3.464C12.2901 3.464 13.0581 3.624 13.7408 3.944C14.4234 4.24266 14.9994 4.66933 15.4688 5.224C15.8954 5.75733 16.2581 6.41866 16.5568 7.208C16.8554 7.976 17.0688 8.79733 17.1968 9.672C17.3248 10.568 17.3888 11.5173 17.3888 12.52V12.776C17.3888 13.4373 17.3994 14.0347 17.4208 14.568L17.4528 16.392C17.4528 22.536 16.0234 25.608 13.1648 25.608ZM13.0368 24.264C13.4208 24.264 13.7728 24.1147 14.0928 23.816C14.4128 23.496 14.6581 23.0693 14.8288 22.536C15.2341 21.448 15.4794 20.2747 15.5648 19.016C15.6714 17.928 15.7248 16.9893 15.7248 16.2C15.7248 15.24 15.6501 13.9813 15.5008 12.424C15.3728 10.7813 15.3088 9.55467 15.3088 8.744V8.168C15.2661 7.35733 14.9888 6.65333 14.4768 6.056C13.9861 5.45867 13.3781 5.16 12.6528 5.16C11.9274 5.16 11.4474 5.576 11.2128 6.408C10.9994 7.06933 10.8928 7.92267 10.8928 8.968C10.8928 9.37333 10.9034 9.71467 10.9248 9.992V10.856L10.8608 12.328C10.8181 12.776 10.7968 13.2667 10.7968 13.8C10.7968 14.952 10.8288 16.0933 10.8928 17.224C10.9781 18.824 11.1914 20.3813 11.5328 21.896C11.8741 23.4747 12.3754 24.264 13.0368 24.264ZM26.552 25.544C26.0827 25.544 25.656 25.032 25.272 24.008C24.824 22.8987 24.4933 21.7573 24.28 20.584L24.056 19.496C23.4373 16.4453 23.0427 14.7067 22.872 14.28H22.488C22.488 14.8987 22.4773 15.464 22.456 15.976V17.736C22.456 20.5947 22.6587 22.824 23.064 24.424L22.712 25.288H21.816L21.4 24.808L21.432 22.664C21.432 20.744 21.336 17.832 21.144 13.928C20.9733 9.768 20.888 6.856 20.888 5.192C20.888 4.168 21.24 3.656 21.944 3.656C23.096 3.656 24.0347 3.95466 24.76 4.552C25.5067 5.14933 25.88 5.98133 25.88 7.048V9.288C25.88 9.608 25.8267 9.98133 25.72 10.408C25.6133 10.8133 25.496 11.144 25.368 11.4L24.76 12.552L24.248 13.512L24.408 14.28L24.856 16.552C25.1547 18.1947 25.4427 19.528 25.72 20.552C25.9973 21.576 26.3387 22.504 26.744 23.336L26.936 23.72C27.1493 24.1467 27.256 24.488 27.256 24.744C27.256 24.9573 27.192 25.1387 27.064 25.288C26.936 25.4587 26.7653 25.544 26.552 25.544ZM22.616 12.712C23.0853 12.4773 23.48 11.8373 23.8 10.792C24.1413 9.72533 24.312 8.744 24.312 7.848C24.312 7.16533 24.2267 6.52533 24.056 5.928C23.9493 5.58667 23.768 5.33067 23.512 5.16C23.2773 4.968 22.9787 4.872 22.616 4.872L22.552 5.032L22.488 5.32L22.552 9.096C22.5947 10.2053 22.616 11.4107 22.616 12.712ZM31.8615 25.416C31.5842 25.416 31.3282 25.32 31.0935 25.128C30.8802 24.936 30.7628 24.7013 30.7415 24.424V23.592V22.952C30.7202 22.76 30.7095 22.536 30.7095 22.28C30.7095 21.832 30.6775 21.1493 30.6135 20.232L30.5495 18.184C30.5495 17.1387 30.5815 15.5813 30.6455 13.512C30.7308 11.656 30.7735 10.0987 30.7735 8.84C30.7735 8.54133 30.7415 8.09333 30.6775 7.496C30.6135 6.87733 30.5815 6.42933 30.5815 6.152C30.5815 4.63733 31.0295 3.88 31.9255 3.88C32.6295 3.88 33.4402 4.01867 34.3575 4.296C35.2962 4.57333 35.7655 4.904 35.7655 5.288C35.7655 5.50133 35.6695 5.704 35.4775 5.896C35.3068 6.06667 35.0935 6.20533 34.8375 6.312C33.9415 5.992 33.1308 5.77867 32.4055 5.672C32.4268 5.992 32.4375 6.45067 32.4375 7.048C32.4375 7.90133 32.4268 8.66933 32.4055 9.352C32.3415 10.376 32.3095 11.144 32.3095 11.656L32.4055 12.168L32.9175 12.136C33.0882 12.1147 33.3015 12.104 33.5575 12.104C34.5815 12.104 35.0935 12.4027 35.0935 13C35.0935 13.2347 34.9975 13.4373 34.8055 13.608C34.6135 13.7573 34.3682 13.832 34.0695 13.832C33.6855 13.832 33.3868 13.8107 33.1735 13.768H32.3735C32.4162 14.3227 32.4375 15.1333 32.4375 16.2C32.4375 17.2667 32.4268 18.2267 32.4055 19.08C32.3415 20.3813 32.3095 21.352 32.3095 21.992C32.3095 23.1867 32.3308 23.784 32.3735 23.784L33.4295 23.752C33.7922 23.7307 34.2295 23.72 34.7415 23.72C35.5522 23.72 35.9575 23.976 35.9575 24.488C35.9575 24.7867 35.8188 25.0107 35.5415 25.16C35.2855 25.3307 34.9655 25.416 34.5815 25.416H31.8615ZM40.0593 25.448C39.6753 25.384 39.3446 25.2453 39.0673 25.032C38.8113 24.8187 38.6619 24.5413 38.6193 24.2L38.9713 23.656C39.0993 23.656 39.3019 23.6987 39.5793 23.784C39.8993 23.848 40.1446 23.88 40.3153 23.88C40.6993 23.88 41.0406 23.7093 41.3393 23.368C41.6593 23.0267 41.8939 22.5787 42.0433 22.024C42.3206 21 42.4593 20.0827 42.4593 19.272C42.4593 17.864 42.0113 16.3813 41.1153 14.824L40.7633 14.216C40.3579 13.512 40.0166 12.8827 39.7393 12.328C39.4619 11.7733 39.2273 11.176 39.0353 10.536C38.7793 9.704 38.6513 8.872 38.6513 8.04C38.6513 7.10133 38.8646 6.12 39.2913 5.096C39.5046 4.60533 39.8033 4.21067 40.1873 3.912C40.5926 3.592 41.0406 3.432 41.5312 3.432C41.9153 3.432 42.2673 3.56 42.5873 3.816C42.9286 4.05067 43.0993 4.33867 43.0993 4.68C43.0993 4.872 43.0246 5.02133 42.8753 5.128C42.7259 5.23466 42.5446 5.288 42.3313 5.288C42.0966 5.288 41.8726 5.224 41.6593 5.096C41.1899 5.11733 40.8166 5.53333 40.5393 6.344C40.3046 7.09067 40.1873 7.70933 40.1873 8.2C40.1873 8.81867 40.2833 9.448 40.4753 10.088C40.6673 10.7067 40.9126 11.272 41.2113 11.784L41.9153 13.064L43.0353 15.176C43.3339 15.7733 43.5686 16.4667 43.7393 17.256C43.9313 18.0453 44.0273 18.8453 44.0273 19.656C44.0273 20.9573 43.7286 22.1947 43.1313 23.368C42.8326 23.9653 42.4059 24.4453 41.8513 24.808C41.3179 25.1707 40.7206 25.352 40.0593 25.352V25.448ZM49.1815 24.488L49.1495 23.24C49.1282 22.8773 49.1175 22.472 49.1175 22.024L49.1495 20.936C49.0855 20.7013 48.9255 18.3653 48.6695 13.928C48.4135 9.49067 48.2642 6.64267 48.2215 5.384C46.9842 5.34133 46.1948 5.21333 45.8535 5C45.6188 4.82933 45.5015 4.63733 45.5015 4.424C45.5015 4.25333 45.6082 4.104 45.8215 3.976C46.0562 3.82667 46.2908 3.752 46.5255 3.752C47.1228 3.752 47.8482 3.79467 48.7015 3.88C49.5122 3.98667 50.2375 4.04 50.8775 4.04H51.1335H51.3895C52.0508 4.04 52.3815 4.296 52.3815 4.808C52.3815 5.064 52.2748 5.27733 52.0615 5.448C51.8482 5.59733 51.6028 5.672 51.3255 5.672C51.1335 5.672 50.8562 5.64 50.4935 5.576L49.8535 5.448L49.8215 5.608L49.7895 5.768C49.7895 7.66667 49.9708 10.696 50.3335 14.856C50.6748 18.76 50.8455 21.7893 50.8455 23.944C50.8455 24.2 50.7282 24.424 50.4935 24.616C50.2802 24.808 50.0348 24.904 49.7575 24.904L49.1815 24.488Z" fill="#F5FAF8"/>
</svg>
